{"extensionsUsed" : ["KHR_materials_pbrSpecularGlossiness"], "accessors" : [{"bufferView" : 0, "byteOffset" : 0, "componentType" : 5123, "count" : 156, "type" : "SCALAR", "max" : [138], "min" : [0]}, {"bufferView" : 1, "byteOffset" : 0, "componentType" : 5126, "count" : 139, "type" : "VEC3", "max" : [42.424922943115234, 45.88500213623047, 0], "min" : [0.37406253814697266, 0, -15], "name" : "POSITION"}, {"bufferView" : 1, "byteOffset" : 12, "componentType" : 5126, "count" : 139, "type" : "VEC3", "max" : [0.9892789721488953, 1.0000044107437134, 1.0000044107437134], "min" : [-0.9916942715644836, -1.0000044107437134, -1.0000044107437134], "name" : "NORMAL"}, {"bufferView" : 1, "byteOffset" : 24, "componentType" : 5126, "count" : 139, "type" : "VEC2", "max" : [0.9262803792953491, 0.9999665021896362], "min" : [0.00012388825416564941, 2.2798776626586914E-06], "name" : "TEXCOORD_0"}, {"bufferView" : 1, "byteOffset" : 32, "componentType" : 5126, "count" : 139, "type" : "VEC3", "max" : [1, 1, 1], "min" : [1, 1, 1], "name" : "COLOR_0"}], "asset" : {"generator" : "Aspose.3D 23.1", "version" : "2.0"}, "buffers" : [{"uri" : "data:application/octet-stream;base64,", "byteLength" : 7184}], "bufferViews" : [{"buffer" : 0, "byteOffset" : 0, "byteLength" : 312, "target" : 34963}, {"buffer" : 0, "byteOffset" : 316, "byteLength" : 6864, "byteStride" : 44, "target" : 34962}], "images" : [{"uri" : "data:image/png;base64,"}, {"uri" : "data:image/png;base64,"}, {"uri" : "data:image/png;base64,"}, {"uri" : "data:image/png;base64,"}], "materials" : [{"name" : "", "extensions" : {"KHR_materials_pbrSpecularGlossiness" : {"diffuseFactor" : [1, 1, 1, 1], "diffuseTexture" : {"index" : 0, "texCoord" : 0}, "specularFactor" : [1, 1, 1], "glossinessFactor" : 1, "specularGlossinessTexture" : {"index" : 1, "texCoord" : 0, "scale" : 1}}}, "pbrMetallicRoughness" : {"baseColorFactor" : [1, 1, 1, 1], "baseColorTexture" : {"index" : 2, "texCoord" : 0}, "metallicFactor" : 1, "roughnessFactor" : 1, "metallicRoughnessTexture" : {"index" : 3, "texCoord" : 0}}, "emissiveFactor" : [0, 0, 0], "alphaMode" : "OPAQUE", "doubleSided" : true}], "meshes" : [{"primitives" : [{"attributes" : {"POSITION" : 1, "NORMAL" : 2, "TEXCOORD_0" : 3, "COLOR_0" : 4}, "indices" : 0, "material" : 0, "mode" : 4}]}], "nodes" : [{"matrix" : [1, 0, 0, 0, 0, 1, 0, 0, 0, 0, 1, 0, -21.399490356445312, -22.942501068115234, 7.5, 1], "mesh" : 0, "name" : "Node #0"}, {"children" : [0], "matrix" : [0.005104830022901297, 5.1452798567817044E-12, 3.768430889758309E-11, 0, -1.4508623858130238E-16, 0.005057905633395065, -0.0006905685271753834, 0, -3.8033949384537095E-11, 0.0006905685271753834, 0.005057905633395065, 0, 0.022061554715037346, 0.020836181938648224, 0.1891445368528366, 1], "name" : "node_id60"}, {"children" : [1], "name" : "root"}], "samplers" : [{"magFilter" : 9728, "minFilter" : 9985, "wrapS" : 10497, "wrapT" : 10497}, {"magFilter" : 9728, "minFilter" : 9985, "wrapS" : 10497, "wrapT" : 10497}, {"magFilter" : 9728, "minFilter" : 9985, "wrapS" : 10497, "wrapT" : 10497}, {"magFilter" : 9728, "minFilter" : 9985, "wrapS" : 10497, "wrapT" : 10497}], "scene" : 0, "scenes" : [{"nodes" : [2]}], "textures" : [{"sampler" : 0, "source" : 0, "name" : ""}, {"sampler" : 1, "source" : 1, "name" : ""}, {"sampler" : 2, "source" : 2, "name" : ""}, {"sampler" : 3, "source" : 3, "name" : ""}]}