<svg width="282" height="247" viewBox="0 0 282 247" fill="none" xmlns="http://www.w3.org/2000/svg">
<g clip-path="url(#clip0_344_23)">
<g filter="url(#filter0_i_344_23)">
<path d="M111.205 206.499L23.7329 52.5493C16.8936 40.512 11.9118 31.7306 9.24672 24.8448C6.59051 17.9818 6.50924 13.6817 8.53329 10.2037C10.5573 6.72572 14.3363 4.67204 21.6155 3.59114C28.9189 2.50667 39.0151 2.49999 52.8597 2.49999H75.6278C80.651 2.49999 84.2414 2.5027 87.0962 2.78008C89.897 3.0522 91.7952 3.57503 93.4477 4.51018C95.1002 5.44533 96.5257 6.80333 98.2011 9.0643C99.9088 11.3688 101.76 14.4453 104.346 18.7515L182.25 148.46C184.864 152.812 186.73 155.925 187.973 158.542C189.192 161.111 189.722 163.026 189.762 164.943C189.803 166.86 189.355 168.796 188.245 171.414C187.114 174.081 185.381 177.27 182.953 181.729L169.752 205.971C162.866 218.616 157.834 227.844 153.226 233.958C148.627 240.061 144.909 242.437 140.806 242.474C136.702 242.511 132.942 240.203 128.233 234.184C123.516 228.154 118.317 219.018 111.205 206.499Z" stroke="#31344B" stroke-opacity="0.9" stroke-width="5"/>
</g>
<path d="M257.641 52.7556L230.991 98.8936C224.122 110.786 219.108 119.453 214.55 125.192C210.008 130.911 206.362 133.149 202.354 133.178C198.347 133.207 194.668 131.022 190.044 125.371C185.402 119.699 180.263 111.105 173.221 99.3141L145.668 53.1761C138.413 41.0276 133.125 32.1597 130.254 25.195C127.389 18.2474 127.226 13.8877 129.235 10.3492C131.243 6.8107 135.07 4.71527 142.503 3.61233C149.955 2.50667 160.28 2.5 174.43 2.5H228.632C242.576 2.5 252.746 2.50667 260.098 3.59808C267.427 4.68618 271.221 6.75349 273.24 10.2513C275.259 13.7491 275.152 18.0688 272.428 24.9596C269.696 31.8714 264.615 40.6815 257.641 52.7556Z" fill="#31344B" stroke="#31344B" stroke-width="5"/>
</g>
<defs>
<filter id="filter0_i_344_23" x="4.62177" y="0" width="187.643" height="248.975" filterUnits="userSpaceOnUse" color-interpolation-filters="sRGB">
<feFlood flood-opacity="0" result="BackgroundImageFix"/>
<feBlend mode="normal" in="SourceGraphic" in2="BackgroundImageFix" result="shape"/>
<feColorMatrix in="SourceAlpha" type="matrix" values="0 0 0 0 0 0 0 0 0 0 0 0 0 0 0 0 0 0 127 0" result="hardAlpha"/>
<feOffset dy="4"/>
<feGaussianBlur stdDeviation="5"/>
<feComposite in2="hardAlpha" operator="arithmetic" k2="-1" k3="1"/>
<feColorMatrix type="matrix" values="0 0 0 0 0 0 0 0 0 0 0 0 0 0 0 0 0 0 0.49 0"/>
<feBlend mode="normal" in2="shape" result="effect1_innerShadow_344_23"/>
</filter>
<clipPath id="clip0_344_23">
<rect width="282" height="247" fill="white"/>
</clipPath>
</defs>
</svg>
