<svg width="262" height="235" viewBox="0 0 262 235" fill="none" xmlns="http://www.w3.org/2000/svg">
<g clip-path="url(#clip0_341_19)">
<path d="M102.239 189.822L23.9099 52.6079C17.0324 40.5601 12.0225 31.7706 9.33859 24.8774C6.66334 18.0065 6.5746 13.7008 8.59722 10.2172C10.6198 6.73361 14.4032 4.67607 21.6966 3.59312C29.0136 2.50667 39.1307 2.5 53.0033 2.5H69.3769C74.3885 2.5 77.9705 2.5027 80.819 2.77898C83.6137 3.05003 85.5082 3.5708 87.1583 4.50229C88.8083 5.43378 90.233 6.7868 91.9089 9.03956C93.6172 11.3357 95.4702 14.4012 98.0594 18.6921L169.926 137.789C172.561 142.156 174.442 145.279 175.695 147.905C176.924 150.483 177.458 152.405 177.498 154.33C177.539 156.254 177.087 158.198 175.968 160.825C174.828 163.502 173.081 166.702 170.633 171.176L160.721 189.293C153.839 201.873 148.809 211.053 144.207 217.135C139.613 223.205 135.902 225.569 131.806 225.606C127.711 225.644 123.957 223.346 119.255 217.36C114.543 211.363 109.348 202.276 102.239 189.822Z" stroke="white" stroke-width="5"/>
<path d="M239.46 52.8145L218.268 89.333C211.403 101.163 206.392 109.784 201.839 115.492C197.303 121.179 193.664 123.406 189.665 123.435C185.666 123.464 181.994 121.291 177.376 115.671C172.74 110.03 167.604 101.483 160.567 89.7539L138.656 53.2355C131.361 41.0766 126.043 32.2006 123.152 25.2284C120.267 18.2727 120.096 13.9074 122.103 10.3631C124.11 6.81885 127.941 4.7194 135.39 3.61436C142.856 2.50667 153.203 2.5 167.382 2.5H210.486C224.458 2.5 234.649 2.50667 242.015 3.60007C249.358 4.69023 253.157 6.76145 255.175 10.2649C257.192 13.7684 257.077 18.0937 254.334 24.9925C251.583 31.9117 246.473 40.7299 239.46 52.8145Z" fill="white" stroke="white" stroke-width="5"/>
</g>
<defs>
<clipPath id="clip0_341_19">
<rect width="262" height="235" fill="white"/>
</clipPath>
</defs>
</svg>
