<svg  width="22" height="21" viewBox="0 0 22 21" fill="none" xmlns="http://www.w3.org/2000/svg">
<g clip-path="url(#clip0_346_44)">
<g filter="url(#filter0_d_346_44)">
<path d="M21.5 6.5H0.5V2C0.5 1.17157 1.17157 0.5 2 0.5H20C20.8284 0.5 21.5 1.17157 21.5 2V6.5ZM0.5 7.5H21.5V13.5H0.5V7.5ZM0.5 14.5H21.5V19C21.5 19.8284 20.8284 20.5 20 20.5H2C1.17157 20.5 0.5 19.8284 0.5 19V14.5Z" stroke="#31344B" stroke-linejoin="round" shape-rendering="crispEdges"/>
</g>
<path d="M19 11.5C19 11.7761 18.7761 12 18.5 12C18.2239 12 18 11.7761 18 11.5C18 11.2239 18.2239 11 18.5 11C18.7761 11 19 11.2239 19 11.5Z" fill="#31344B"/>
<path d="M19 18C19 18.2761 18.7761 18.5 18.5 18.5C18.2239 18.5 18 18.2761 18 18C18 17.7239 18.2239 17.5 18.5 17.5C18.7761 17.5 19 17.7239 19 18Z" fill="#31344B"/>
<path d="M19 5C19 5.27614 18.7761 5.5 18.5 5.5C18.2239 5.5 18 5.27614 18 5C18 4.72386 18.2239 4.5 18.5 4.5C18.7761 4.5 19 4.72386 19 5Z" fill="#31344B"/>
</g>
<defs>
<filter id="filter0_d_346_44" x="-4" y="0" width="30" height="29" filterUnits="userSpaceOnUse" color-interpolation-filters="sRGB">
<feFlood flood-opacity="0" result="BackgroundImageFix"/>
<feColorMatrix in="SourceAlpha" type="matrix" values="0 0 0 0 0 0 0 0 0 0 0 0 0 0 0 0 0 0 127 0" result="hardAlpha"/>
<feOffset dy="4"/>
<feGaussianBlur stdDeviation="2"/>
<feComposite in2="hardAlpha" operator="out"/>
<feColorMatrix type="matrix" values="0 0 0 0 0 0 0 0 0 0 0 0 0 0 0 0 0 0 0.25 0"/>
<feBlend mode="normal" in2="BackgroundImageFix" result="effect1_dropShadow_346_44"/>
<feBlend mode="normal" in="SourceGraphic" in2="effect1_dropShadow_346_44" result="shape"/>
</filter>
<clipPath id="clip0_346_44">
<rect width="22" height="21" fill="white"/>
</clipPath>
</defs>
</svg>
